<?xml version="1.0" standalone="no"?>
<!DOCTYPE svg PUBLIC "-//W3C//DTD SVG 20010904//EN"
 "http://www.w3.org/TR/2001/REC-SVG-20010904/DTD/svg10.dtd">
<svg version="1.0" xmlns="http://www.w3.org/2000/svg"
 width="79.000000pt" height="93.000000pt" viewBox="0 0 79.000000 93.000000"
 preserveAspectRatio="xMidYMid meet">

<g transform="translate(0.000000,93.000000) scale(0.100000,-0.100000)"
fill="#000000" stroke="none">
<path d="M606 915 c-9 -9 -15 -24 -15 -33 1 -15 2 -15 6 1 12 47 18 5 15 -113
-3 -111 -1 -130 11 -130 21 0 46 26 53 56 6 25 -18 74 -36 74 -14 0 -12 87 2
110 10 16 10 23 -3 36 -15 14 -18 14 -33 -1z"/>
<path d="M536 835 c10 -8 24 -14 29 -14 6 0 1 6 -9 14 -11 8 -24 15 -30 15 -5
0 -1 -7 10 -15z"/>
<path d="M275 786 c-59 -26 -72 -101 -26 -147 29 -29 31 -29 140 -29 120 0
153 9 170 47 24 53 9 103 -39 128 -37 19 -202 20 -245 1z m60 -81 c0 -25 -4
-30 -24 -30 -32 0 -49 28 -31 50 7 9 23 15 34 13 16 -2 21 -10 21 -33z m179
13 c8 -14 7 -21 -6 -34 -30 -30 -75 9 -48 42 16 18 39 15 54 -8z"/>
<path d="M147 703 c-3 -5 -4 -19 -3 -33 1 -31 31 -34 32 -3 1 15 -3 20 -14 15
-11 -4 -14 -1 -9 11 6 17 2 24 -6 10z"/>
<path d="M168 532 c-82 -7 -90 -9 -120 -40 l-33 -32 -3 -184 -3 -183 26 -31
c14 -17 43 -36 63 -42 21 -5 153 -10 305 -10 291 0 315 4 355 55 21 26 22 39
22 195 0 95 -5 181 -11 198 -6 17 -25 41 -43 52 -30 18 -54 20 -252 24 -120 2
-258 1 -306 -2z m400 -107 c26 -29 32 -43 32 -79 0 -40 2 -45 23 -43 12 1 28
7 35 14 30 30 81 -2 66 -41 -8 -20 -43 -31 -57 -17 -6 6 -25 11 -42 11 -24 0
-48 -17 -125 -90 -52 -49 -100 -89 -106 -90 -6 0 -53 40 -105 90 -77 73 -100
89 -126 90 -17 0 -35 -4 -38 -10 -11 -17 -44 -11 -55 10 -23 43 23 76 63 46
24 -19 56 -10 50 14 -9 33 17 91 51 111 41 25 106 25 139 -1 17 -14 28 -17 33
-9 11 19 66 37 98 32 18 -2 44 -18 64 -38z"/>
<path d="M249 401 c-43 -43 -38 -111 7 -111 18 0 25 7 32 32 11 42 39 49 48
12 l7 -26 13 32 c12 27 16 30 29 20 8 -7 18 -30 21 -51 4 -22 10 -39 13 -39 4
0 12 20 19 45 16 62 52 58 52 -6 0 -15 7 -19 34 -19 37 0 46 12 46 59 0 37
-44 81 -81 81 -17 0 -42 -12 -61 -29 l-33 -29 -33 29 c-41 37 -75 37 -113 0z"/>
<path d="M311 268 c-1 -12 -9 -18 -23 -18 -20 0 -18 -4 17 -41 22 -22 52 -49
66 -59 l25 -19 65 59 c52 49 60 59 42 60 -12 0 -26 8 -31 17 -8 13 -13 7 -24
-33 -8 -28 -19 -49 -27 -49 -8 0 -22 23 -32 50 -10 29 -18 41 -18 29 -1 -29
-25 -49 -39 -32 -5 7 -12 22 -15 33 -4 16 -5 17 -6 3z"/>
</g>
</svg>
